<?xml version="1.0" encoding="iso-8859-1"?>
<!-- Generator: Adobe Illustrator 18.0.0, SVG Export Plug-In . SVG Version: 6.00 Build 0)  -->
<!DOCTYPE svg PUBLIC "-//W3C//DTD SVG 1.1//EN" "http://www.w3.org/Graphics/SVG/1.1/DTD/svg11.dtd">
<svg version="1.1" id="Capa_1" xmlns="http://www.w3.org/2000/svg" xmlns:xlink="http://www.w3.org/1999/xlink" x="0px" y="0px"
	 viewBox="0 0 292.518 292.518" style="enable-background:new 0 0 292.518 292.518;" xml:space="preserve">
<g>
	<path d="M292.518,125.66c0-17.848-13.592-32.578-30.965-34.381V18.455c0-2.476-1.222-4.791-3.265-6.189
		c-2.041-1.397-4.644-1.697-6.951-0.802L108.39,66.988H30.225c-1.989,0-3.897,0.791-5.305,2.197
		c-0.573,0.574-14.118,14.282-20.992,34.914c-6.502,19.513-8.138,48.891,20.993,78.031c1.406,1.407,3.314,2.197,5.304,2.197h1.736
		l59.188,93.738c1.374,2.177,3.769,3.496,6.342,3.496h61.382c0.008,0.001,0.016,0.001,0.02,0c4.143,0,7.5-3.357,7.5-7.5
		c0-1.655-0.536-3.186-1.445-4.427l-52.984-83.917l139.37,54.226c0.88,0.343,1.802,0.511,2.719,0.511c1.491,0,2.97-0.444,4.235-1.31
		c2.044-1.397,3.266-3.714,3.266-6.19v-72.92C278.927,158.233,292.518,143.506,292.518,125.66z M33.516,81.988h68.78v87.34H33.401
		C-3.445,130.018,25.215,91.55,33.516,81.988z M101.627,266.562l-51.913-82.215h43.643l51.911,82.215H101.627z M117.297,79.621
		l129.257-50.207v192.575l-129.257-50.291V79.621z M261.554,144.877v-38.44c9.071,1.694,15.965,9.662,15.965,19.223
		C277.518,135.219,270.625,143.183,261.554,144.877z"/>
	<path d="M229.991,133.205h1c4.143,0,7.5-3.357,7.5-7.5c0-4.143-3.357-7.5-7.5-7.5h-1c-4.143,0-7.5,3.357-7.5,7.5
		C222.491,129.848,225.848,133.205,229.991,133.205z"/>
	<path d="M200.991,133.205h1c4.143,0,7.5-3.357,7.5-7.5c0-4.143-3.357-7.5-7.5-7.5h-1c-4.143,0-7.5,3.357-7.5,7.5
		C193.491,129.848,196.848,133.205,200.991,133.205z"/>
	<path d="M171.991,133.205h1c4.143,0,7.5-3.357,7.5-7.5c0-4.143-3.357-7.5-7.5-7.5h-1c-4.143,0-7.5,3.357-7.5,7.5
		C164.491,129.848,167.848,133.205,171.991,133.205z"/>
	<path d="M142.991,133.205h1c4.143,0,7.5-3.357,7.5-7.5c0-4.143-3.357-7.5-7.5-7.5h-1c-4.143,0-7.5,3.357-7.5,7.5
		C135.491,129.848,138.848,133.205,142.991,133.205z"/>
</g>
<g>
</g>
<g>
</g>
<g>
</g>
<g>
</g>
<g>
</g>
<g>
</g>
<g>
</g>
<g>
</g>
<g>
</g>
<g>
</g>
<g>
</g>
<g>
</g>
<g>
</g>
<g>
</g>
<g>
</g>
</svg>
